<?xml version="1.0" encoding="UTF-8"?>
<svg version="1.1" xmlns="http://www.w3.org/2000/svg" width="500" height="500">
<path d="M0 0 C165 0 330 0 500 0 C500 165 500 330 500 500 C335 500 170 500 0 500 C0 335 0 170 0 0 Z " fill="#FEFEFE" transform="translate(0,0)"/>
<path d="M0 0 C12.54350554 -0.11587595 25.08688364 -0.20470673 37.63081551 -0.25906086 C43.45556678 -0.28514888 49.27995174 -0.32053335 55.10449219 -0.37719727 C60.72605869 -0.431544 66.34727294 -0.46142652 71.96908188 -0.47438622 C74.11331604 -0.48362121 76.25753103 -0.50165514 78.40161514 -0.52865028 C81.40635001 -0.56497518 84.40963149 -0.5699438 87.41455078 -0.56762695 C88.30000076 -0.58560333 89.18545074 -0.60357971 90.09773254 -0.62210083 C94.32166731 -0.58688525 97.11670951 -0.35125616 100.47409058 2.34797668 C103 5 103 5 105 8 C104.61327277 15.40731391 102.8985158 22.5355553 101.25 29.75 C100.98558105 30.92344971 100.72116211 32.09689941 100.44873047 33.3059082 C98.05246489 43.89120705 95.55503408 54.45200533 93 65 C87.80861271 63.26603461 83.44476495 60.25158466 78.875 57.3125 C78.03348389 56.77592773 77.19196777 56.23935547 76.32495117 55.68652344 C74.65057439 54.61845035 72.9772886 53.54866473 71.30517578 52.47705078 C68.31286463 50.55971521 65.31270563 48.65495456 62.3125 46.75 C60.8747707 45.83369301 59.4371604 44.917199 58 44 C58.608591 39.65292141 59.27816 35.33103998 60 31 C51.09 31 42.18 31 33 31 C32.34 35.95 31.68 40.9 31 46 C40.26011526 52.74144965 49.54355726 59.43208292 59.00537109 65.88818359 C64.79583734 69.84324664 70.52579159 73.88074651 76.24243164 77.94165039 C80.12144965 80.69291028 84.02875708 83.3834334 88 86 C86.56891383 96.43668233 84.44830909 106.65577047 82.1875 116.9375 C81.85317802 118.47453598 81.51919266 120.01164522 81.18554688 121.54882812 C79.2918068 130.24706345 77.34136584 138.93187356 75.36450195 147.61157227 C75.13580666 148.61672127 74.90711136 149.62187027 74.6714859 150.65747833 C74.11457028 153.10504174 73.55740435 155.55254786 73 158 C60.30880326 158.09265526 47.6176869 158.16374251 34.92622089 158.20724869 C29.0331306 158.22812885 23.14027162 158.25645484 17.24731445 158.30175781 C11.56092745 158.34519948 5.87476302 158.36913388 0.18822289 158.37950897 C-1.98193682 158.3869033 -4.15208425 158.40134257 -6.32214928 158.42292023 C-9.360461 158.45193131 -12.39785149 158.45595689 -15.4362793 158.45410156 C-16.33467529 158.46848267 -17.23307129 158.48286377 -18.15869141 158.49768066 C-22.24765699 158.4706393 -24.42772855 158.35438231 -27.97273254 156.15911865 C-31.95513438 151.91770588 -31.95513438 151.91770588 -32.11279297 148.69287109 C-31.30075201 139.45368539 -29.27653901 130.62339371 -27.125 121.625 C-26.59185916 119.36121692 -26.06115531 117.09687234 -25.53070068 114.8324585 C-25.18491386 113.35716328 -24.83812854 111.8821017 -24.49029541 110.4072876 C-22.89562932 103.62522263 -21.42712071 96.81937432 -20 90 C-16.46793659 90.65956507 -13.90580346 92.10719375 -10.859375 93.984375 C-9.87066406 94.59023437 -8.88195312 95.19609375 -7.86328125 95.8203125 C-6.32220703 96.77550781 -6.32220703 96.77550781 -4.75 97.75 C-3.73808594 98.37132812 -2.72617188 98.99265625 -1.68359375 99.6328125 C3.89422632 103.06197814 9.45213122 106.5226277 15 110 C14.44268058 115.94474046 13.47553448 121.09786208 12 127 C21.24 127 30.48 127 40 127 C40.4640625 123.720625 40.4640625 123.720625 40.9375 120.375 C41.56993141 115.90581802 42.24018542 111.44936465 43 107 C33.1995936 99.83877768 23.33126168 92.80056399 13.29248047 85.97705078 C4.12992815 79.74454924 -4.93519504 73.37348816 -14 67 C-13.40813304 61.03650867 -12.55218481 55.26213884 -11.29296875 49.40625 C-11.12630203 48.61585327 -10.95963531 47.82545654 -10.78791809 47.0111084 C-10.43608438 45.3468183 -10.08219046 43.6829625 -9.72631836 42.01953125 C-9.19495001 39.53483648 -8.67014291 37.04882974 -8.14648438 34.5625 C-6.44327007 26.51272172 -4.6783831 18.47976495 -2.80078125 10.46875 C-2.63458786 9.75835571 -2.46839447 9.04796143 -2.29716492 8.31604004 C-1.62877329 5.49657974 -0.91692431 2.75077293 0 0 Z " fill="#FFDE5B" transform="translate(211,145)"/>
<path d="M0 0 C0.77251602 0.00359528 1.54503204 0.00719055 2.34095764 0.01089478 C3.55549622 0.01067574 3.55549622 0.01067574 4.79457092 0.01045227 C7.48380671 0.01115163 10.17297412 0.01894507 12.86219788 0.02676392 C14.72164878 0.02862802 16.58110018 0.03005196 18.44055176 0.03105164 C23.34458258 0.03487746 28.24858398 0.04470829 33.15260315 0.05575562 C38.15280255 0.06596836 43.15300669 0.07054896 48.1532135 0.07559204 C57.97158583 0.0863305 67.78993629 0.10340769 77.60829163 0.12442017 C76.25942566 9.24467729 74.62155264 18.1981286 72.57655334 27.18496704 C72.1012948 29.28026747 71.63774149 31.37795294 71.17469788 33.47598267 C70.87200668 34.81988922 70.56864685 36.16364538 70.26454163 37.50723267 C69.99448303 38.70751099 69.72442444 39.90778931 69.44618225 41.1444397 C68.60829163 44.12442017 68.60829163 44.12442017 66.60829163 47.12442017 C62.31829163 44.48442017 58.02829163 41.84442017 53.60829163 39.12442017 C53.93829163 36.48442017 54.26829163 33.84442017 54.60829163 31.12442017 C45.36829163 31.12442017 36.12829163 31.12442017 26.60829163 31.12442017 C26.27829163 33.43442017 25.94829163 35.74442017 25.60829163 38.12442017 C25.23216051 40.03362641 24.83560023 41.93894263 24.41688538 43.83926392 C24.21635559 44.75570679 24.01582581 45.67214966 23.80921936 46.61636353 C23.43132263 48.32191406 23.43132263 48.32191406 23.04579163 50.06192017 C21.83922913 55.53785767 21.83922913 55.53785767 20.60829163 61.12442017 C11.03829163 61.45442017 1.46829163 61.78442017 -8.39170837 62.12442017 C-6.72108337 63.77442017 -5.05045837 65.42442017 -3.32920837 67.12442017 C0.65985937 71.08939011 4.50721396 75.11185902 8.09657288 79.44863892 C9.72235723 81.37153597 9.72235723 81.37153597 12.67079163 83.31192017 C15.09260278 86.82745249 14.6356055 87.7636995 13.92469788 91.87442017 C13.72449036 93.03675171 13.52428284 94.19908325 13.31800842 95.39663696 C12.13716718 101.59899849 10.83753431 107.77034541 9.48329163 113.93692017 C8.53454163 118.28879517 7.58579163 122.64067017 6.60829163 127.12442017 C15.84829163 127.12442017 25.08829163 127.12442017 34.60829163 127.12442017 C34.93829163 124.15442017 35.26829163 121.18442017 35.60829163 118.12442017 C35.90374816 116.36803689 36.22276989 114.61518733 36.58094788 112.87051392 C36.75819397 111.99717407 36.93544006 111.12383423 37.11805725 110.22402954 C37.30045959 109.34553345 37.48286194 108.46703735 37.67079163 107.56192017 C37.85706116 106.64861938 38.04333069 105.7353186 38.23524475 104.79434204 C38.68937266 102.57027972 39.14710463 100.34702741 39.60829163 98.12442017 C38.68016663 98.18758423 37.75204163 98.25074829 36.79579163 98.31582642 C33.60829163 98.12442017 33.60829163 98.12442017 31.98329163 96.90176392 C31.30266663 95.99104126 31.30266663 95.99104126 30.60829163 95.06192017 C26.59297953 90.02256874 22.21033287 85.40872016 17.75868225 80.75698853 C17.18182678 80.14605347 16.60497131 79.53511841 16.01063538 78.90567017 C15.50008606 78.3700647 14.98953674 77.83445923 14.46351624 77.28262329 C11.66828379 74.03089874 9.1529149 70.57388735 6.60829163 67.12442017 C13.94801616 66.63622387 21.2834817 66.30748277 28.63587952 66.08071899 C31.12672645 65.98608513 33.61654439 65.85709762 36.10365295 65.69107056 C57.88206822 64.27540782 57.88206822 64.27540782 66.53944397 71.40322876 C70.75390681 75.40174538 74.53022243 79.69300559 78.08441162 84.28559875 C79.49008216 86.23336287 79.49008216 86.23336287 81.60829163 87.12442017 C81.60829163 89.10442017 81.60829163 91.08442017 81.60829163 93.12442017 C77.10209186 91.55667386 73.42247798 89.18666223 69.48329163 86.56192017 C64.78515196 83.38949028 64.78515196 83.38949028 59.60829163 81.12442017 C59.55656799 81.95163574 59.55656799 81.95163574 59.50379944 82.79556274 C58.93161228 89.96605537 57.46601904 96.82104079 55.82585144 103.81634521 C55.34939449 105.84989372 54.8809434 107.88514072 54.41468811 109.92105103 C53.783875 112.6745463 53.15100699 115.42755162 52.51600647 118.18008423 C51.2110016 123.84389845 49.92956471 129.51265085 48.67079163 135.18692017 C48.45970764 136.11270874 48.24862366 137.03849731 48.03114319 137.99234009 C46.04583594 146.09480073 46.04583594 146.09480073 48.10829163 153.87442017 C48.60329163 154.61692017 49.09829163 155.35942017 49.60829163 156.12442017 C49.60829163 156.78442017 49.60829163 157.44442017 49.60829163 158.12442017 C39.28133237 158.24036538 28.95452844 158.32916162 18.6270504 158.38348103 C13.83133803 158.40955426 9.03607158 158.44491061 4.24061584 158.50161743 C-0.38892869 158.55601858 -5.01804482 158.58585781 -9.64788437 158.59880638 C-11.4125429 158.60803175 -13.17717848 158.62604718 -14.94165421 158.65307045 C-17.41721665 158.6894699 -19.89101824 158.69436118 -22.36680603 158.69204712 C-23.45653717 158.71901169 -23.45653717 158.71901169 -24.56828308 158.746521 C-30.2535929 158.68917129 -32.54803123 157.01099212 -36.39170837 153.12442017 C-39.77016926 146.36749839 -36.25990532 136.65168419 -34.76670837 129.74942017 C-34.49455505 128.46285522 -34.22240173 127.17629028 -33.94200134 125.85073853 C-32.00274854 116.72393765 -29.91453172 107.63322364 -27.77940369 98.55044556 C-25.54225044 88.95947456 -23.52247652 79.32821838 -21.51670837 69.68692017 C-18.53839169 55.37505862 -15.39485996 41.10956956 -12.09336853 26.86880493 C-11.93644531 26.19140762 -11.77952209 25.51401031 -11.61784363 24.81608582 C-11.16431496 22.85890604 -10.71038959 20.90181821 -10.25645447 18.94473267 C-9.1108493 13.88362888 -8.05452824 8.80628963 -7.01597595 3.72207642 C-5.93791475 -0.76387245 -4.30646611 0.00846009 0 0 Z " fill="#03BF65" transform="translate(127.39170837402344,144.87557983398438)"/>
<path d="M0 0 C0 0.66 0 1.32 0 2 C-3.3 2.66 -6.6 3.32 -10 4 C-10.268125 5.57394531 -10.53625 7.14789063 -10.8125 8.76953125 C-11.9147924 14.82922847 -13.40193097 20.74220854 -15 26.6875 C-15.52117559 28.64964871 -16.04201539 30.61188664 -16.5625 32.57421875 C-16.79066406 33.42588623 -17.01882813 34.27755371 -17.25390625 35.1550293 C-18.19986954 38.76213342 -19.09556496 42.38225983 -20 46 C-30.23 46 -40.46 46 -51 46 C-51 45.01 -51 44.02 -51 43 C-41.76 43 -32.52 43 -23 43 C-23 42.01 -23 41.02 -23 40 C-32.57 40 -42.14 40 -52 40 C-54.06568029 33.80295912 -55.84612527 27.99961859 -57.25 21.6875 C-57.5284375 20.5109082 -57.5284375 20.5109082 -57.8125 19.31054688 C-57.98265625 18.55193359 -58.1528125 17.79332031 -58.328125 17.01171875 C-58.4818457 16.33584717 -58.63556641 15.65997559 -58.79394531 14.96362305 C-59 13 -59 13 -58 9 C-43.48 9 -28.96 9 -14 9 C-13.67 6.69 -13.34 4.38 -13 2 C-8.7920942 -0.80527053 -4.85771358 -1.68151624 0 0 Z " fill="#FF4848" transform="translate(382,150)"/>
<path d="M0 0 C2 2 2 2 3.5 5.625 C8.04078247 14.87193014 18.5413267 19.69024809 27.375 24.0625 C29.4084212 25.09986063 31.44098335 26.13890699 33.47265625 27.1796875 C34.43187988 27.66791992 35.39110352 28.15615234 36.37939453 28.65917969 C61.32521993 41.4225925 61.32521993 41.4225925 65.578125 53.6640625 C66.20238024 57.12058691 66.18434952 60.56231352 66.1875 64.0625 C66.19974609 64.78244141 66.21199219 65.50238281 66.22460938 66.24414062 C66.23519011 70.0426247 66.15755655 71.76366518 64 75 C63.85304688 74.38253906 63.70609375 73.76507813 63.5546875 73.12890625 C59.17890629 56.60655994 47.15738176 47.30258499 33 39 C30.32346162 37.48003111 27.63137695 35.98896866 24.9375 34.5 C3.2332898 22.46657961 3.2332898 22.46657961 -1 14 C-2.29154863 8.92166593 -2.59188912 4.72638605 0 0 Z " fill="#906884" transform="translate(297,255)"/>
<path d="M0 0 C2 3 2 3 3.5 6.25 C9.33216138 16.35197215 23.31421724 20.71023221 33.47485352 25.37231445 C46.55102795 31.39935523 59.27721043 37.91807638 66.16796875 51.26171875 C67.27090183 54.89155954 67.29104394 58.36947931 67.25 62.125 C67.26160156 63.19814453 67.26160156 63.19814453 67.2734375 64.29296875 C67.25933736 68.06475618 67.14079147 69.78881279 65 73 C64.86464844 72.24976563 64.72929687 71.49953125 64.58984375 70.7265625 C62.20363682 59.38136308 57.54555145 52.03176965 47.88745117 45.46630859 C41.39380976 41.34997281 34.3551655 38.26163153 27.3984375 35.02246094 C16.61068316 29.96614525 4.59846762 24.19693523 -1 13 C-1.09608608 11.16871229 -1.12982579 9.33380041 -1.125 7.5 C-1.12757813 6.5203125 -1.13015625 5.540625 -1.1328125 4.53125 C-1 2 -1 2 0 0 Z " fill="#8E6985" transform="translate(301,245)"/>
<path d="M0 0 C2.56304503 3.84456754 2.59070523 5.4220345 2 10 C-3.25232513 21.51789408 -14.72454521 27.82024929 -25.5625 33.25 C-26.53896484 33.75273437 -27.51542969 34.25546875 -28.52148438 34.7734375 C-44.61927356 43 -44.61927356 43 -48 43 C-49.27132167 40.90605842 -50 39.47289462 -50 37 C-47.46704723 31.93409446 -40.54498887 29.68136095 -35.625 27.3125 C-14.1219461 17.66728553 -14.1219461 17.66728553 0 0 Z " fill="#9A9A9A" transform="translate(354,208)"/>
<path d="M0 0 C0.66 0.33 1.32 0.66 2 1 C3.16954641 5.17695147 3.34515662 8.94295786 2 13.0625 C1.34 14.031875 0.68 15.00125 0 16 C-0.39574219 16.59167969 -0.79148437 17.18335938 -1.19921875 17.79296875 C-9.54442393 28.76658501 -25.29863887 36.32787934 -38 41 C-41.356337 41.32997695 -42.46619884 41.3462494 -45.3125 39.5 C-45.869375 39.005 -46.42625 38.51 -47 38 C-46 35 -46 35 -43.61425781 33.53295898 C-42.57108398 33.02579346 -41.52791016 32.51862793 -40.453125 31.99609375 C-39.30344238 31.4252002 -38.15375977 30.85430664 -36.96923828 30.26611328 C-36.36082092 29.96771545 -35.75240356 29.66931763 -35.12554932 29.36187744 C-14.89776467 19.81590599 -14.89776467 19.81590599 -1 3 C-0.67 2.01 -0.34 1.02 0 0 Z " fill="#969696" transform="translate(357,217)"/>
<path d="M0 0 C2.92359734 2.21484647 2.96414507 3.7579792 3.5 7.375 C2.84053371 12.15613064 1.37565893 13.62434107 -2 17 C-4.84083641 18.42041821 -6.85477278 18.31452272 -10 18 C-12.375 16.5625 -12.375 16.5625 -14 14 C-14.94482587 9.26704051 -14.65732102 6.03899129 -12.0625 1.9375 C-7.97918064 -0.64582449 -4.71416895 -0.96281678 0 0 Z " fill="#2497CB" transform="translate(263,311)"/>
<path d="M0 0 C0.66 0.33 1.32 0.66 2 1 C1.34 2.65 0.68 4.3 0 6 C0.99 6.33 1.98 6.66 3 7 C3.21079572 10.09167049 3.23506168 12.42018118 2.0625 15.3125 C-1.244507 18.018233 -4.80684486 18.28761714 -9 18 C-11.5625 16.625 -11.5625 16.625 -13 14 C-13.92556981 9.22085587 -13.68415213 6.04760795 -11 1.9375 C-6.92850586 -0.69200664 -4.78247476 -0.47040735 0 0 Z " fill="#161616" transform="translate(102,311)"/>
<path d="M0 0 C1.6875 2.5625 1.6875 2.5625 3 5 C3.33 3.02 3.66 1.04 4 -1 C5.65 -1 7.3 -1 9 -1 C9 4.61 9 10.22 9 16 C7.68 16.33 6.36 16.66 5 17 C3.35 15.02 1.7 13.04 0 11 C-0.33 12.98 -0.66 14.96 -1 17 C-2.65 17 -4.3 17 -6 17 C-6 11.39 -6 5.78 -6 0 C-3 -1 -3 -1 0 0 Z " fill="#050505" transform="translate(172,312)"/>
<path d="M0 0 C0.33 0 0.66 0 1 0 C1.09474609 0.94359375 1.09474609 0.94359375 1.19140625 1.90625 C2.2216218 9.10691446 4.38278325 13.35095394 10 18 C18.06080789 23.65183082 26.69817935 27.84032231 35.625 31.9375 C47.23825688 37.32461047 58.2811391 43.4766224 64.96484375 54.90625 C66.97183348 60.90449854 65.98979869 66.83663171 65 73 C64.67 73 64.34 73 64 73 C63.88785156 71.40671875 63.88785156 71.40671875 63.7734375 69.78125 C63.04868512 61.39553783 62.38353342 55.0412927 56 49 C55.51917969 48.49726563 55.03835938 47.99453125 54.54296875 47.4765625 C47.60627185 40.83840698 38.25898285 36.6469567 29.7734375 32.32421875 C4.93296517 19.65145359 4.93296517 19.65145359 0 10 C-1.16487194 6.32617313 -0.95499416 3.71386618 0 0 Z " fill="#F6EFF2" transform="translate(299,250)"/>
<path d="M0 0 C10.625 -0.25 10.625 -0.25 14 2 C14.77777778 8.88888889 14.77777778 8.88888889 12.25 12.5 C10 14 10 14 6 14 C5.67 15.32 5.34 16.64 5 18 C3.35 18 1.7 18 0 18 C0 12.06 0 6.12 0 0 Z " fill="#319DCE" transform="translate(267,311)"/>
<path d="M0 0 C1.98 0 3.96 0 6 0 C6.87042243 1.88842514 7.72075474 3.78611902 8.5625 5.6875 C9.03816406 6.74324219 9.51382813 7.79898437 10.00390625 8.88671875 C11.05322011 12.16633893 11.00418265 13.75895539 10 17 C7.03 16.67 4.06 16.34 1 16 C1 16.66 1 17.32 1 18 C-0.98 18 -2.96 18 -5 18 C-3.9007105 11.68878497 -2.41862058 5.93661416 0 0 Z " fill="#121212" transform="translate(111,311)"/>
<path d="M0 0 C1.65 0 3.3 0 5 0 C5 2.31 5 4.62 5 7 C5.99 7 6.98 7 8 7 C8 4.69 8 2.38 8 0 C9.65 0 11.3 0 13 0 C13 5.61 13 11.22 13 17 C11.35 17 9.7 17 8 17 C8 15.68 8 14.36 8 13 C7.01 13 6.02 13 5 13 C5 14.65 5 16.3 5 18 C3.35 18 1.7 18 0 18 C0 12.06 0 6.12 0 0 Z " fill="#1C93C9" transform="translate(234,312)"/>
<path d="M0 0 C0.33 1.65 0.66 3.3 1 5 C-1.31 5 -3.62 5 -6 5 C-6 5.66 -6 6.32 -6 7 C-5.05125 6.95875 -4.1025 6.9175 -3.125 6.875 C0 7 0 7 2 9 C2.32378803 12.04360748 2.51045744 14.12921967 0.9375 16.8125 C-1.95899243 18.58776955 -4.64772206 18.76055158 -8 19 C-8.99 18.67 -9.98 18.34 -11 18 C-11 16.35 -11 14.7 -11 13 C-10.34 12.67 -9.68 12.34 -9 12 C-9.66 11.34 -10.32 10.68 -11 10 C-11.375 6.5625 -11.375 6.5625 -11 3 C-7.97607007 -0.74967312 -4.54317809 -0.26210643 0 0 Z " fill="#2798CB" transform="translate(230,311)"/>
<path d="M0 0 C0.5625 1.9375 0.5625 1.9375 1 4 C0 5 0 5 -3.0625 5.0625 C-4.031875 5.041875 -5.00125 5.02125 -6 5 C-6 5.66 -6 6.32 -6 7 C-4.865625 7.144375 -3.73125 7.28875 -2.5625 7.4375 C1 8 1 8 2 9 C1.4 15.6 1.4 15.6 -1 18 C-3.6015625 18.1953125 -3.6015625 18.1953125 -6.625 18.125 C-8.12933594 18.09792969 -8.12933594 18.09792969 -9.6640625 18.0703125 C-10.43492187 18.04710937 -11.20578125 18.02390625 -12 18 C-11.625 15.5625 -11.625 15.5625 -11 13 C-10.34 12.67 -9.68 12.34 -9 12 C-9.495 11.608125 -9.99 11.21625 -10.5 10.8125 C-12 9 -12 9 -12.4375 6.5625 C-12 4 -12 4 -10.5 1.6875 C-6.87174359 -0.76157308 -4.32159775 -0.28810652 0 0 Z " fill="#141414" transform="translate(149,311)"/>
<path d="M0 0 C3.96 0 7.92 0 12 0 C12 1.32 12 2.64 12 4 C9.69 4 7.38 4 5 4 C5 4.66 5 5.32 5 6 C7.31 6 9.62 6 12 6 C12 9.63 12 13.26 12 17 C8.04 17 4.08 17 0 17 C0 11.39 0 5.78 0 0 Z " fill="#0B0B0B" transform="translate(152,312)"/>
<path d="M0 0 C0.66 0.66 1.32 1.32 2 2 C-6.92182491 13.98073631 -20.57589355 20.07967324 -33.59301758 26.65869141 C-34.64900146 27.19284668 -35.70498535 27.72700195 -36.79296875 28.27734375 C-37.7471167 28.75421631 -38.70126465 29.23108887 -39.68432617 29.72241211 C-42.10106922 30.91603743 -42.10106922 30.91603743 -44 33 C-44.33 31.35 -44.66 29.7 -45 28 C-44.17910889 27.61779297 -43.35821777 27.23558594 -42.51245117 26.84179688 C-39.40851015 25.38975269 -36.30990399 23.9272993 -33.21411133 22.45800781 C-31.88466181 21.82955824 -30.55333215 21.20506749 -29.2199707 20.58496094 C-18.24710751 15.47669016 -7.27597072 10.03582168 0 0 Z " fill="#EFEFEF" transform="translate(353,222)"/>
<path d="M0 0 C1.65 0 3.3 0 5 0 C5 3.96 5 7.92 5 12 C7.31 12 9.62 12 12 12 C12 13.65 12 15.3 12 17 C8.04 17.33 4.08 17.66 0 18 C0 12.06 0 6.12 0 0 Z " fill="#090909" transform="translate(124,311)"/>
<path d="M0 0 C3.96 0 7.92 0 12 0 C12 3.3 12 6.6 12 10 C8.7 10 5.4 10 2 10 C1.34 6.7 0.68 3.4 0 0 Z " fill="#FFFAFA" transform="translate(327,163)"/>
<path d="M0 0 C3.63 0 7.26 0 11 0 C10.125 7.75 10.125 7.75 9 10 C5.7 10 2.4 10 -1 10 C-0.67 6.7 -0.34 3.4 0 0 Z " fill="#FFFAFA" transform="translate(355,163)"/>
<path d="M0 0 C3.63 0 7.26 0 11 0 C11 3.3 11 6.6 11 10 C7.7 10 4.4 10 1 10 C0.67 6.7 0.34 3.4 0 0 Z " fill="#FFFDFD" transform="translate(341,163)"/>
<path d="M0 0 C2.97 0 5.94 0 9 0 C9 3.3 9 6.6 9 10 C6.03 10 3.06 10 0 10 C0 6.7 0 3.4 0 0 Z " fill="#FFF9F9" transform="translate(342,176)"/>
<path d="M0 0 C3.3 0 6.6 0 10 0 C10 3.3 10 6.6 10 10 C7.36 10 4.72 10 2 10 C1.34 6.7 0.68 3.4 0 0 Z " fill="#FFF7F7" transform="translate(330,176)"/>
<path d="M0 0 C3.46679688 0.04882812 3.46679688 0.04882812 6.93359375 0.09765625 C6.27359375 3.39765625 5.61359375 6.69765625 4.93359375 10.09765625 C2.29359375 10.09765625 -0.34640625 10.09765625 -3.06640625 10.09765625 C-3.09329841 8.61858733 -3.11275246 7.13938142 -3.12890625 5.66015625 C-3.14050781 4.83644531 -3.15210938 4.01273438 -3.1640625 3.1640625 C-3.03158405 0.36081842 -2.80324408 0.13247845 0 0 Z " fill="#FFF8F8" transform="translate(356.06640625,175.90234375)"/>
<path d="M0 0 C0.33 0 0.66 0 1 0 C1.09474609 0.94359375 1.09474609 0.94359375 1.19140625 1.90625 C2.21748975 9.07803364 4.3640683 13.40086706 10 18 C14.83326844 21.2804692 19.89773022 24.1632168 25 27 C24.34 27.66 23.68 28.32 23 29 C3.77279726 18.45708383 3.77279726 18.45708383 -0.45703125 9 C-1.34813044 5.71767782 -0.81799675 3.271987 0 0 Z " fill="#E7EEF4" transform="translate(299,250)"/>
<path d="M0 0 C0.66 0.66 1.32 1.32 2 2 C-4.24427154 10.38516464 -13.41084939 16.86674543 -23 21 C-23.66 20.67 -24.32 20.34 -25 20 C-22.47744382 17.14167695 -19.6385824 15.57274426 -16.3125 13.75 C-9.91236263 10.08834565 -4.13110264 6.19665396 0 0 Z " fill="#F2F2F2" transform="translate(353,222)"/>
<path d="M0 0 C3.125 0.375 3.125 0.375 6 1 C6.6875 3.3125 6.6875 3.3125 7 6 C5.875 7.875 5.875 7.875 4 9 C1.3125 8.6875 1.3125 8.6875 -1 8 C-1.625 5.125 -1.625 5.125 -2 2 C-1.34 1.34 -0.68 0.68 0 0 Z " fill="#FF4545" transform="translate(334,198)"/>
<path d="M0 0 C0.33 1.32 0.66 2.64 1 4 C4.3 4 7.6 4 11 4 C10.67 4.99 10.34 5.98 10 7 C7.03 7 4.06 7 1 7 C0.67 7.66 0.34 8.32 0 9 C0 8.34 0 7.68 0 7 C-1.17369141 6.92652344 -1.17369141 6.92652344 -2.37109375 6.8515625 C-3.38300781 6.77679688 -4.39492188 6.70203125 -5.4375 6.625 C-6.95150391 6.52058594 -6.95150391 6.52058594 -8.49609375 6.4140625 C-9.32238281 6.27742187 -10.14867187 6.14078125 -11 6 C-11.33 5.34 -11.66 4.68 -12 4 C-6.06 3.505 -6.06 3.505 0 3 C0 2.01 0 1.02 0 0 Z " fill="#FF6565" transform="translate(341,169)"/>
<path d="M0 0 C6.08765638 3.24394146 9.47633785 7.59723697 12 14 C12.53801411 19.03844627 11.79967842 24.02048982 11 29 C10.67 29 10.34 29 10 29 C9.88785156 27.40671875 9.88785156 27.40671875 9.7734375 25.78125 C9.04491917 17.40526892 8.34029173 11.09908498 2 5 C1.34 4.34 0.68 3.68 0 3 C0 2.01 0 1.02 0 0 Z " fill="#FAE5E6" transform="translate(353,294)"/>
<path d="M0 0 C1.66611905 -0.042721 3.33382885 -0.04063832 5 0 C6 1 6 1 6.09765625 4.81640625 C6.09098089 6.39846682 6.07901875 7.98051159 6.0625 9.5625 C6.05798828 10.36880859 6.05347656 11.17511719 6.04882812 12.00585938 C6.03700518 14.00393756 6.01906914 16.00197783 6 18 C5.34 18 4.68 18 4 18 C4 16.35 4 14.7 4 13 C2.02 13 0.04 13 -2 13 C-2 12.67 -2 12.34 -2 12 C-0.02 12 1.96 12 4 12 C4 10.35 4 8.7 4 7 C1.69 7 -0.62 7 -3 7 C-3 6.34 -3 5.68 -3 5 C-0.69 5 1.62 5 4 5 C4 3.68 4 2.36 4 1 C2.68 0.67 1.36 0.34 0 0 Z " fill="#B5B5B5" transform="translate(160,311)"/>
<path d="M0 0 C4.55555556 0.55555556 4.55555556 0.55555556 6 2 C6.125 4.5 6.125 4.5 6 7 C5 8 5 8 2 8.125 C-1 8 -1 8 -2 7 C-2.1875 4.5625 -2.1875 4.5625 -2 2 C-1.34 1.34 -0.68 0.68 0 0 Z " fill="#FF3737" transform="translate(354,198)"/>
<path d="M0 0 C0.99 0.33 1.98 0.66 3 1 C3 6.61 3 12.22 3 18 C2.67 18 2.34 18 2 18 C1.34 14.7 0.68 11.4 0 8 C-2.31 7.34 -4.62 6.68 -7 6 C-7 5.34 -7 4.68 -7 4 C-4.69 4 -2.38 4 0 4 C0 2.68 0 1.36 0 0 Z " fill="#C5E3F1" transform="translate(231,312)"/>
<path d="M0 0 C0.33 0 0.66 0 1 0 C1 2.64 1 5.28 1 8 C3.97 8 6.94 8 10 8 C10 8.33 10 8.66 10 9 C7.03 9 4.06 9 1 9 C0.67 10.65 0.34 12.3 0 14 C-1 12 -2 10 -3 8 C-2.34 8 -1.68 8 -1 8 C-1.020625 7.05125 -1.04125 6.1025 -1.0625 5.125 C-1 2 -1 2 0 0 Z " fill="#FF3333" transform="translate(353,166)"/>
<path d="M0 0 C1.2065625 0.0309375 1.2065625 0.0309375 2.4375 0.0625 C2.1075 1.7125 1.7775 3.3625 1.4375 5.0625 C0.1175 5.3925 -1.2025 5.7225 -2.5625 6.0625 C-2.94468767 4.40635343 -3.27645102 2.73792976 -3.5625 1.0625 C-2.5625 0.0625 -2.5625 0.0625 0 0 Z " fill="#F4FAFC" transform="translate(257.5625,316.9375)"/>
<path d="M0 0 C0.33 0 0.66 0 1 0 C1 2.64 1 5.28 1 8 C-1.97 7.01 -4.94 6.02 -8 5 C-8 4.34 -8 3.68 -8 3 C-6.865625 2.690625 -5.73125 2.38125 -4.5625 2.0625 C-1.21224901 1.37075469 -1.21224901 1.37075469 0 0 Z " fill="#E8E8E8" transform="translate(151,313)"/>
<path d="M0 0 C0.66 0.33 1.32 0.66 2 1 C1 4 1 4 -0.9375 5.0625 C-1.618125 5.371875 -2.29875 5.68125 -3 6 C-3.66 6.66 -4.32 7.32 -5 8 C-5.33 6.35 -5.66 4.7 -6 3 C-4.03533587 1.93224776 -2.03144641 0.93446535 0 0 Z " fill="#E7E7E7" transform="translate(314,247)"/>
<path d="M0 0 C0.66 0 1.32 0 2 0 C3.40333568 5.76926889 2.67296616 11.18143105 2 17 C1.67 17 1.34 17 1 17 C0.67 11.39 0.34 5.78 0 0 Z " fill="#FDBFC0" transform="translate(362,306)"/>
<path d="M0 0 C0.66 0.33 1.32 0.66 2 1 C1.814375 1.5775 1.62875 2.155 1.4375 2.75 C0.95976454 5.20692525 1.24270636 6.64397534 2 9 C1.01 9 0.02 9 -1 9 C-1.625 6.1875 -1.625 6.1875 -2 3 C-1.34 2.01 -0.68 1.02 0 0 Z " fill="#EAECEE" transform="translate(304,242)"/>
</svg>
