<?xml version="1.0" encoding="UTF-8"?>
<svg version="1.1" xmlns="http://www.w3.org/2000/svg" width="500" height="500">
<path d="M0 0 C165 0 330 0 500 0 C500 165 500 330 500 500 C335 500 170 500 0 500 C0 335 0 170 0 0 Z " fill="#FEFEFE" transform="translate(0,0)"/>
<path d="M0 0 C0.98871094 -0.01417969 1.97742188 -0.02835937 2.99609375 -0.04296875 C5.5625 0.1875 5.5625 0.1875 7.5625 2.1875 C7.62050781 3.4559375 7.67851562 4.724375 7.73828125 6.03125 C8.00015507 8.54432978 8.15387907 9.7735461 9.94677734 11.58984375 C11.83183983 12.78290821 13.72552033 13.75105822 15.75 14.6875 C16.7409668 15.20570312 16.7409668 15.20570312 17.75195312 15.734375 C21.82823299 17.76245501 24.92149383 18.59169338 29.5625 18.1875 C29.789375 17.383125 30.01625 16.57875 30.25 15.75 C31.5625 13.1875 31.5625 13.1875 33.86328125 12.41015625 C36.96779676 12.15406742 38.30027268 12.69084602 41.0625 14.0625 C46.29068553 16.36258763 51.0092544 16.70026485 56.6796875 16.81640625 C59.86338536 17.22623186 61.21950676 18.0539047 63.5625 20.1875 C67.39024487 18.3862083 70.70205866 16.06060342 74.1484375 13.625 C79.3740966 10.51328066 83.9137177 9.94884373 89.9375 10.0625 C91.18273437 10.08054687 92.42796875 10.09859375 93.7109375 10.1171875 C95.12246094 10.15199219 95.12246094 10.15199219 96.5625 10.1875 C93.88328208 19.72607688 86.98614079 26.89719084 78.703125 32.06640625 C76.37740589 33.28443798 74.01589559 34.25675377 71.5625 35.1875 C72.2225 37.4975 72.8825 39.8075 73.5625 42.1875 C83.10010174 41.09508747 91.65972276 34.61024238 97.5625 27.1875 C99.71047833 23.9307273 101.64507089 20.58307105 103.5625 17.1875 C104.5525 15.7025 104.5525 15.7025 105.5625 14.1875 C108.52425123 14.80027612 109.94308783 15.44122522 112.5625 17.1875 C111.43376587 27.17020052 103.98089144 36.86718789 96.2109375 43.0625 C85.00520833 51.1875 85.00520833 51.1875 78.5625 51.1875 C80.5425 55.1475 80.5425 55.1475 82.5625 59.1875 C92.16162759 58.08965256 101.10898292 51.20108563 107.5625 44.1875 C112.16207319 38.17267352 116.29559017 32.04079665 119.5625 25.1875 C123.11607616 28.37660681 125.26885662 30.3316412 125.5625 35.1875 C119.22920756 49.60349084 105.72477378 61.88993154 91.5625 68.1875 C92.5525 69.8375 93.5425 71.4875 94.5625 73.1875 C99.25273454 72.62143721 103.90750026 72.00212495 108.5625 71.1875 C108.748125 72.13625 108.93375 73.085 109.125 74.0625 C110.1063953 77.55346329 111.7342694 80.02424487 113.875 82.9375 C122.42580556 94.64141512 125.05156925 105.87407315 124.5625 120.1875 C124.54445313 121.03054687 124.52640625 121.87359375 124.5078125 122.7421875 C124.1312645 128.96630441 121.60164063 133.81573482 118.5625 139.1875 C117.9025 139.1875 117.2425 139.1875 116.5625 139.1875 C116.54848145 138.06275269 116.54848145 138.06275269 116.53417969 136.9152832 C116.25159375 118.88934817 115.88734167 103.64526295 105.5625 88.1875 C104.9025 87.8575 104.2425 87.5275 103.5625 87.1875 C100.43508592 90.94114118 100.43508592 90.94114118 99.7578125 95.5390625 C100.98490699 99.57775212 103.0603096 103.07664323 105.08984375 106.76171875 C108.4938932 114.68042264 108.90455932 122.78759188 108.875 131.3125 C108.89111328 132.24964844 108.90722656 133.18679687 108.92382812 134.15234375 C108.9275109 139.41871169 108.37905862 143.54012029 106.30004883 148.38232422 C105.20144764 151.0711879 104.76843761 153.83785655 104.25 156.6875 C102.60267791 163.95756945 100.18367744 168.61544873 94.0546875 172.96875 C88.62697921 176.32348516 84.45375046 178.33203229 78 178.375 C77.02933594 178.38917969 76.05867187 178.40335938 75.05859375 178.41796875 C72.5625 178.1875 72.5625 178.1875 70.5625 176.1875 C71.4803125 175.72601563 72.398125 175.26453125 73.34375 174.7890625 C86.57134711 167.86967887 93.77581141 158.64597325 98.875 144.5625 C101.87727359 130.46611067 99.61142312 115.59037618 92.5625 103.1875 C89.7019109 104.54687085 87.70322301 105.83270469 85.5625 108.1875 C85.9646875 109.1775 85.9646875 109.1775 86.375 110.1875 C86.766875 111.1775 87.15875 112.1675 87.5625 113.1875 C88.07425781 114.38632813 88.58601562 115.58515625 89.11328125 116.8203125 C90.77856728 121.28897461 91.02574635 125.32813426 90.9375 130.0625 C90.92734863 130.85261475 90.91719727 131.64272949 90.90673828 132.45678711 C90.61928021 143.29663056 87.52128734 152.0369356 79.86328125 159.94140625 C75.6136874 163.75171624 70.43688169 168.1875 64.5625 168.1875 C64.52125 168.991875 64.48 169.79625 64.4375 170.625 C63.21185874 175.61511085 60.60278795 179.10300101 57.5625 183.1875 C57.07265625 183.85652344 56.5828125 184.52554688 56.078125 185.21484375 C52.08373368 190.29373379 48.02014482 192.36067189 41.6875 193.875 C37.67074114 194.27667589 33.58412093 194.66205127 29.5625 194.1875 C27.20999388 191.83499388 27.24833306 191.01898606 26.8125 187.8125 C26.03426917 183.42783363 24.60313295 180.04515951 22.5 176.125 C20.09017179 171.60149114 19.07915492 168.21904918 18.83203125 163.1484375 C18.38755528 159.91471377 16.48196538 157.74678717 14.5625 155.1875 C11.98306394 150.54451509 11.96393181 145.38095927 12.5625 140.1875 C13.2225 139.1975 13.8825 138.2075 14.5625 137.1875 C15.51795397 128.64396394 14.98289453 120.68663576 10.5625 113.1875 C9.20125 111.8571875 9.20125 111.8571875 7.8125 110.5 C5.2117225 107.78821371 5.29116086 105.12537556 5.26855469 101.47143555 C5.31133537 99.43055947 5.39137319 97.39460998 5.484375 95.35546875 C5.51015625 94.31003906 5.5359375 93.26460938 5.5625 92.1875 C3.65582232 90.28082232 0.3732733 90.34578186 -2.2109375 89.8828125 C-4.4375 89.1875 -4.4375 89.1875 -5.953125 87.63671875 C-7.34937756 86.00030007 -7.34937756 86.00030007 -9.5234375 85.82421875 C-10.27882812 85.84097656 -11.03421875 85.85773438 -11.8125 85.875 C-12.93785156 85.88080078 -12.93785156 85.88080078 -14.0859375 85.88671875 C-16.49649784 86.08999819 -16.49649784 86.08999819 -18.8046875 87.171875 C-21.9926855 88.40166651 -24.78214132 88.56894586 -28.1875 88.75 C-32.13116173 88.62264579 -32.13116173 88.62264579 -35.4375 90.1875 C-40.82113391 90.07982732 -43.72945697 88.75416002 -47.5390625 85.203125 C-51.42636824 81.07586212 -54.95392699 76.65673515 -58.4375 72.1875 C-59.30375 71.14335937 -59.30375 71.14335937 -60.1875 70.078125 C-62.1131817 67.16553143 -61.68886206 64.58088777 -61.4375 61.1875 C-61.1075 60.5275 -60.7775 59.8675 -60.4375 59.1875 C-60.39982501 57.06304893 -60.36537295 54.9384625 -60.35180664 52.8137207 C-60.20643396 43.33199088 -59.25483028 36.33588769 -52.4375 29.1875 C-49.90425958 27.07776143 -47.30791673 25.10508839 -44.65234375 23.15234375 C-41.71619187 20.54760937 -40.82270064 17.97305307 -39.4609375 14.375 C-37.48681445 10.15550035 -34.56792756 7.30670629 -30.4375 5.1875 C-27.43094853 4.87325592 -24.63541362 5.00345031 -21.62109375 5.203125 C-13.65756152 5.16404018 -7.59913849 0.04940922 0 0 Z " fill="#013D3F" transform="translate(214.4375,94.8125)"/>
<path d="M0 0 C18.65868263 0 18.65868263 0 24 4 C28.48441918 9.14067565 28.59545746 14.00203538 28.40234375 20.69921875 C27.8073042 25.58085386 26.11305272 29.60417145 24 34 C22.7067419 36.81879298 22.7067419 36.81879298 23.70703125 38.83203125 C24.07183594 39.48558594 24.43664062 40.13914062 24.8125 40.8125 C28.72701143 48.3028973 29.56519878 54.54830656 29 63 C28 64 28 64 25.71484375 64.09765625 C24.79832031 64.08605469 23.88179687 64.07445312 22.9375 64.0625 C21.55884766 64.04896484 21.55884766 64.04896484 20.15234375 64.03515625 C19.08693359 64.01775391 19.08693359 64.01775391 18 64 C17.89042969 63.09378906 17.78085938 62.18757813 17.66796875 61.25390625 C16.51053955 50.81372029 16.51053955 50.81372029 13 41 C12.01 40.34 11.02 39.68 10 39 C10 46.92 10 54.84 10 63 C6.7 63 3.4 63 0 63 C0 42.21 0 21.42 0 0 Z " fill="#DA5016" transform="translate(149,321)"/>
<path d="M0 0 C3.3 0 6.6 0 10 0 C10.33 7.26 10.66 14.52 11 22 C11.7425 20.040625 12.485 18.08125 13.25 16.0625 C15.33891006 10.62300201 17.57572097 5.29749863 20 0 C23.3 0 26.6 0 30 0 C31.22087354 3.66262062 30.68182557 4.31026988 29.09375 7.7109375 C28.67996094 8.62617188 28.26617187 9.54140625 27.83984375 10.484375 C26.9495943 12.40502978 26.05638297 14.32431458 25.16015625 16.2421875 C24.74636719 17.16 24.33257812 18.0778125 23.90625 19.0234375 C23.51759766 19.85794434 23.12894531 20.69245117 22.72851562 21.55224609 C21.85643572 24.48236443 22.10153397 26.10024259 23 29 C23.61875 29.99 24.2375 30.98 24.875 32 C30.31196003 41.18727188 30.78108144 52.60560847 30 63 C29 64 29 64 26.49609375 64.09765625 C25.48675781 64.08605469 24.47742188 64.07445312 23.4375 64.0625 C21.91962891 64.04896484 21.91962891 64.04896484 20.37109375 64.03515625 C19.58863281 64.02355469 18.80617187 64.01195312 18 64 C17.97421875 62.72125 17.9484375 61.4425 17.921875 60.125 C17.86555525 58.41663435 17.80820882 56.70830233 17.75 55 C17.73582031 54.16082031 17.72164062 53.32164062 17.70703125 52.45703125 C17.44303267 45.64586779 15.92570463 39.92570463 11 35 C10.97494385 35.84296631 10.9498877 36.68593262 10.92407227 37.55444336 C10.82911845 40.67241674 10.72987552 43.79021503 10.62768555 46.90795898 C10.58428777 48.25914147 10.5426163 49.61038053 10.50268555 50.96166992 C10.44510048 52.90036701 10.38085702 54.83886276 10.31640625 56.77734375 C10.26141968 58.52905884 10.26141968 58.52905884 10.20532227 60.31616211 C10 63 10 63 9 64 C7.31391034 64.07205511 5.62499341 64.08386068 3.9375 64.0625 C2.55884766 64.04896484 2.55884766 64.04896484 1.15234375 64.03515625 C0.44207031 64.02355469 -0.26820313 64.01195312 -1 64 C-1.0231271 55.80309439 -1.04091696 47.60620232 -1.05181217 39.40927219 C-1.0570402 35.60348423 -1.06413638 31.79771852 -1.07543945 27.99194336 C-1.0862712 24.32207456 -1.09227744 20.65222722 -1.09487724 16.98234367 C-1.09673097 15.57925008 -1.1003506 14.17615771 -1.10573006 12.7730732 C-1.11294419 10.8143032 -1.11340809 8.8555118 -1.11352539 6.89672852 C-1.115746 5.77976089 -1.11796661 4.66279327 -1.12025452 3.51197815 C-1 1 -1 1 0 0 Z " fill="#DB551E" transform="translate(216,321)"/>
<path d="M0 0 C2.01822917 0.06510417 4.03645833 0.13020833 6.0546875 0.1953125 C9.38769532 11.61012689 12.25789945 23.08811319 14.87768555 34.6875 C15.98088674 39.56594867 17.09207511 44.43465608 18.359375 49.2734375 C18.55265381 50.01190918 18.74593262 50.75038086 18.94506836 51.51123047 C19.45117478 53.41596118 19.96920674 55.31751239 20.48828125 57.21875 C21.0546875 60.1953125 21.0546875 60.1953125 20.0546875 64.1953125 C16.7546875 64.1953125 13.4546875 64.1953125 10.0546875 64.1953125 C9.71692066 62.4461628 9.38465079 60.69595105 9.0546875 58.9453125 C8.8690625 57.97078125 8.6834375 56.99625 8.4921875 55.9921875 C8.0546875 53.1953125 8.0546875 53.1953125 8.0546875 49.1953125 C3.7646875 49.1953125 -0.5253125 49.1953125 -4.9453125 49.1953125 C-5.0690625 50.7421875 -5.1928125 52.2890625 -5.3203125 53.8828125 C-5.68853214 57.64505661 -6.235445 60.7755775 -7.9453125 64.1953125 C-11.2453125 64.1953125 -14.5453125 64.1953125 -17.9453125 64.1953125 C-17.4046005 58.19458479 -16.43283944 52.76345358 -14.6953125 47.0078125 C-12.66744953 40.01294988 -10.91168259 32.9895539 -9.3203125 25.8828125 C-9.11140381 24.95218994 -8.90249512 24.02156738 -8.68725586 23.06274414 C-7.78893002 19.03834457 -6.90442236 15.01123707 -6.03515625 10.98046875 C-5.65037109 9.23056641 -5.65037109 9.23056641 -5.2578125 7.4453125 C-5.04769531 6.46046875 -4.83757812 5.475625 -4.62109375 4.4609375 C-3.78471069 1.65687869 -3.03396541 0.304615 0 0 Z " fill="#DB541B" transform="translate(79.9453125,320.8046875)"/>
<path d="M0 0 C2.05078125 0.03255208 4.1015625 0.06510417 6.15234375 0.09765625 C7.5087798 4.04631897 8.68847061 7.98565918 9.703125 12.03515625 C9.98720215 13.16735596 10.2712793 14.29955566 10.56396484 15.46606445 C11.0098999 17.26370239 11.0098999 17.26370239 11.46484375 19.09765625 C11.77244629 20.33410889 12.08004883 21.57056152 12.39697266 22.84448242 C14.33641134 30.68544241 16.2253306 38.53645235 18.02734375 46.41015625 C18.23012939 47.29123047 18.43291504 48.17230469 18.6418457 49.08007812 C19.69177877 53.73515933 20.66286696 58.34722121 21.15234375 63.09765625 C20.15234375 64.09765625 20.15234375 64.09765625 18.0859375 64.1953125 C17.26222656 64.18371094 16.43851562 64.17210937 15.58984375 64.16015625 C14.35041016 64.14662109 14.35041016 64.14662109 13.0859375 64.1328125 C12.12880859 64.11541016 12.12880859 64.11541016 11.15234375 64.09765625 C9.21833889 59.06924362 8.63660603 54.42454135 8.15234375 49.09765625 C3.86234375 49.09765625 -0.42765625 49.09765625 -4.84765625 49.09765625 C-4.97140625 50.45890625 -5.09515625 51.82015625 -5.22265625 53.22265625 C-5.64203593 57.07000896 -6.45200172 60.46895447 -7.84765625 64.09765625 C-11.14765625 64.09765625 -14.44765625 64.09765625 -17.84765625 64.09765625 C-16.8183607 56.06644231 -15.22535256 48.39807108 -13.0546875 40.6015625 C-11.19583318 33.81729604 -9.64223561 26.95336583 -8.04199219 20.10449219 C-3.3355869 0.17629952 -3.3355869 0.17629952 0 0 Z " fill="#0E4649" transform="translate(426.84765625,320.90234375)"/>
<path d="M0 0 C3.96 0 7.92 0 12 0 C14.45946923 5.25432063 15.90301833 10.30860098 17 16 C17.26554687 15.09636719 17.53109375 14.19273437 17.8046875 13.26171875 C18.15789062 12.08222656 18.51109375 10.90273438 18.875 9.6875 C19.22304688 8.51574219 19.57109375 7.34398437 19.9296875 6.13671875 C21 3 21 3 23 0 C25.3828125 -0.29296875 25.3828125 -0.29296875 28.125 -0.1875 C29.03507812 -0.16042969 29.94515625 -0.13335937 30.8828125 -0.10546875 C31.58148438 -0.07066406 32.28015625 -0.03585937 33 0 C31.70355843 4.73087451 30.28887149 9.36805729 28.4296875 13.91015625 C22.57088298 28.26099324 25.06574484 35.982751 30.28515625 50.06347656 C34 60.12704918 34 60.12704918 34 64 C29.71 64 25.42 64 21 64 C20.15996552 61.2518872 19.32777849 58.50180419 18.5 55.75 C18.26152344 54.97269531 18.02304687 54.19539063 17.77734375 53.39453125 C17.55175781 52.64042969 17.32617188 51.88632812 17.09375 51.109375 C16.88427734 50.41811523 16.67480469 49.72685547 16.45898438 49.01464844 C16 47 16 47 16 43 C15.34 43 14.68 43 14 43 C14.061875 43.86625 14.12375 44.7325 14.1875 45.625 C13.97167796 49.50979678 12.81093682 51.58708062 11 55 C10.31320058 57.32748694 9.64238957 59.65986656 9 62 C8 63 8 63 5.71484375 63.09765625 C4.34005859 63.08025391 4.34005859 63.08025391 2.9375 63.0625 C2.01839844 63.05347656 1.09929687 63.04445313 0.15234375 63.03515625 C-0.55792969 63.02355469 -1.26820313 63.01195312 -2 63 C-0.9551301 58.64312417 0.46009276 54.43567272 1.875 50.1875 C2.13152344 49.40568359 2.38804687 48.62386719 2.65234375 47.81835938 C3.84425833 44.23363134 5.07298909 40.77664208 6.6953125 37.36328125 C9.83954046 29.2579511 6.76805097 22.53046759 4 14.75 C3.24608622 12.60032694 2.49590388 10.44934048 1.75 8.296875 C1.41484375 7.35166992 1.0796875 6.40646484 0.734375 5.43261719 C0 3 0 3 0 0 Z " fill="#0D4548" transform="translate(340,321)"/>
<path d="M0 0 C0.9583374 0.00523682 1.9166748 0.01047363 2.90405273 0.01586914 C4.45576172 0.02070313 4.45576172 0.02070313 6.03881836 0.02563477 C7.12743164 0.03401367 8.21604492 0.04239258 9.33764648 0.05102539 C10.97636719 0.05779297 10.97636719 0.05779297 12.64819336 0.06469727 C15.35723144 0.07652713 18.06616248 0.09300996 20.77514648 0.11352539 C20.77514648 3.08352539 20.77514648 6.05352539 20.77514648 9.11352539 C16.15514648 9.11352539 11.53514648 9.11352539 6.77514648 9.11352539 C6.77514648 14.39352539 6.77514648 19.67352539 6.77514648 25.11352539 C10.40514648 25.11352539 14.03514648 25.11352539 17.77514648 25.11352539 C17.77514648 28.08352539 17.77514648 31.05352539 17.77514648 34.11352539 C14.14514648 34.11352539 10.51514648 34.11352539 6.77514648 34.11352539 C6.77514648 41.04352539 6.77514648 47.97352539 6.77514648 55.11352539 C11.06514648 55.11352539 15.35514648 55.11352539 19.77514648 55.11352539 C19.77514648 58.08352539 19.77514648 61.05352539 19.77514648 64.11352539 C12.18514648 64.11352539 4.59514648 64.11352539 -3.22485352 64.11352539 C-3.24740777 55.91661569 -3.26577047 47.71972994 -3.27666569 39.52279758 C-3.28189371 35.71700962 -3.2889899 31.91124391 -3.30029297 28.10546875 C-3.31112472 24.43559995 -3.31713096 20.76575261 -3.31973076 17.09586906 C-3.32158449 15.69277547 -3.32520412 14.2896831 -3.33058357 12.88659859 C-3.33779771 10.92782859 -3.3382616 8.96903719 -3.33837891 7.01025391 C-3.34059952 5.89328629 -3.34282013 4.77631866 -3.34510803 3.62550354 C-3.17931257 0.16222762 -3.17931257 0.16222762 0 0 Z " fill="#0E4649" transform="translate(306.224853515625,320.886474609375)"/>
<path d="M0 0 C1.34888732 0.00015905 2.69778075 0.00584927 4.04663086 0.01586914 C5.10991859 0.01799156 5.10991859 0.01799156 6.19468689 0.02015686 C8.46699173 0.02577096 10.73919936 0.03832576 13.01147461 0.05102539 C14.54858257 0.05603858 16.08569206 0.0606018 17.62280273 0.06469727 C21.39823103 0.07574497 25.17358632 0.09301898 28.94897461 0.11352539 C28.97586677 1.59259431 28.99532082 3.07180022 29.01147461 4.55102539 C29.02307617 5.37473633 29.03467773 6.19844727 29.04663086 7.04711914 C28.94897461 9.11352539 28.94897461 9.11352539 27.94897461 10.11352539 C26.09609959 10.18579041 24.24063583 10.19733759 22.38647461 10.17602539 C21.37456055 10.16700195 20.36264648 10.15797852 19.32006836 10.14868164 C18.14637695 10.1312793 18.14637695 10.1312793 16.94897461 10.11352539 C16.95119522 10.77529282 16.95341583 11.43706024 16.95570374 12.11888123 C16.97775426 18.98012759 16.99288023 25.84136396 17.00390625 32.70263672 C17.00894831 35.26644296 17.01578175 37.8302463 17.02441406 40.39404297 C17.03648525 44.0700756 17.04220403 47.74607037 17.04663086 51.42211914 C17.05179214 52.57626816 17.05695343 53.73041718 17.06227112 54.91954041 C17.06238441 56.51107689 17.06238441 56.51107689 17.0625 58.13476562 C17.06472061 59.07408432 17.06694122 60.01340302 17.06922913 60.98118591 C16.94897461 63.11352539 16.94897461 63.11352539 15.94897461 64.11352539 C12.97897461 64.11352539 10.00897461 64.11352539 6.94897461 64.11352539 C6.94897461 46.29352539 6.94897461 28.47352539 6.94897461 10.11352539 C3.31897461 10.11352539 -0.31102539 10.11352539 -4.05102539 10.11352539 C-4.14868164 3.17993164 -4.14868164 3.17993164 -4.05102539 1.11352539 C-3.05102539 0.11352539 -3.05102539 0.11352539 0 0 Z " fill="#0B4447" transform="translate(262.051025390625,320.886474609375)"/>
<path d="M0 0 C0.9583374 0.00523682 1.9166748 0.01047363 2.90405273 0.01586914 C4.45576172 0.02070313 4.45576172 0.02070313 6.03881836 0.02563477 C7.12743164 0.03401367 8.21604492 0.04239258 9.33764648 0.05102539 C10.97636719 0.05779297 10.97636719 0.05779297 12.64819336 0.06469727 C15.35723144 0.07652713 18.06616248 0.09300996 20.77514648 0.11352539 C20.87280273 6.26586914 20.87280273 6.26586914 20.77514648 8.11352539 C19.77514648 9.11352539 19.77514648 9.11352539 16.83374023 9.21118164 C13.48087565 9.17862956 10.12801107 9.14607747 6.77514648 9.11352539 C6.77514648 14.39352539 6.77514648 19.67352539 6.77514648 25.11352539 C10.40514648 25.11352539 14.03514648 25.11352539 17.77514648 25.11352539 C17.87280273 31.26586914 17.87280273 31.26586914 17.77514648 33.11352539 C16.77514648 34.11352539 16.77514648 34.11352539 14.48999023 34.21118164 C13.11520508 34.1937793 13.11520508 34.1937793 11.71264648 34.17602539 C10.79354492 34.16700195 9.87444336 34.15797852 8.92749023 34.14868164 C8.2172168 34.13708008 7.50694336 34.12547852 6.77514648 34.11352539 C6.7803833 34.98678467 6.78562012 35.86004395 6.79101562 36.75976562 C6.80802399 39.98941812 6.82058018 43.21904784 6.83007812 46.44873047 C6.83511728 47.84847767 6.84194865 49.24821959 6.85058594 50.64794922 C6.86266968 52.65598316 6.86784455 54.66405497 6.87280273 56.67211914 C6.87803955 57.88182373 6.88327637 59.09152832 6.88867188 60.33789062 C6.77514648 63.11352539 6.77514648 63.11352539 5.77514648 64.11352539 C4.25586611 64.18532503 2.73347167 64.19744546 1.21264648 64.17602539 C-0.02678711 64.16249023 -0.02678711 64.16249023 -1.29125977 64.14868164 C-2.24838867 64.1312793 -2.24838867 64.1312793 -3.22485352 64.11352539 C-3.24798062 55.91661978 -3.26577047 47.71972771 -3.27666569 39.52279758 C-3.28189371 35.71700962 -3.2889899 31.91124391 -3.30029297 28.10546875 C-3.31112472 24.43559995 -3.31713096 20.76575261 -3.31973076 17.09586906 C-3.32158449 15.69277547 -3.32520412 14.2896831 -3.33058357 12.88659859 C-3.33779771 10.92782859 -3.3382616 8.96903719 -3.33837891 7.01025391 C-3.34059952 5.89328629 -3.34282013 4.77631866 -3.34510803 3.62550354 C-3.17931257 0.16222762 -3.17931257 0.16222762 0 0 Z " fill="#DB5219" transform="translate(116.224853515625,320.886474609375)"/>
<path d="M0 0 C2.41760188 3.0454567 4.28058105 6.17053819 6.0625 9.625 C6.56910156 10.58664063 7.07570313 11.54828125 7.59765625 12.5390625 C10.83770759 20.53540091 11.34214535 28.57527999 11.3125 37.125 C11.32861328 38.06214844 11.34472656 38.99929687 11.36132812 39.96484375 C11.3650109 45.23121169 10.81655862 49.35262029 8.73754883 54.19482422 C7.63894764 56.8836879 7.20593761 59.65035655 6.6875 62.5 C5.04017791 69.77006945 2.62117744 74.42794873 -3.5078125 78.78125 C-8.93552079 82.13598516 -13.10874954 84.14453229 -19.5625 84.1875 C-21.01849609 84.20876953 -21.01849609 84.20876953 -22.50390625 84.23046875 C-25 84 -25 84 -27 82 C-25.62328125 81.30777344 -25.62328125 81.30777344 -24.21875 80.6015625 C-10.99115289 73.68217887 -3.78668859 64.45847325 1.3125 50.375 C4.25417833 36.56311986 2.34878905 21.03599745 -5 9 C-5.66 8.34 -6.32 7.68 -7 7 C-4.66666667 4.66666667 -2.33333333 2.33333333 0 0 Z " fill="#DA5219" transform="translate(312,189)"/>
<path d="M0 0 C2.97 0 5.94 0 9 0 C9 20.79 9 41.58 9 63 C5.7 63 2.4 63 -1 63 C-1.02312737 54.93347826 -1.04091709 46.86697028 -1.05181217 38.80042362 C-1.05704014 35.05516963 -1.06413622 31.30993824 -1.07543945 27.56469727 C-1.08627141 23.95318313 -1.09227749 20.34169079 -1.09487724 16.73016167 C-1.09673094 15.34939671 -1.10035049 13.968633 -1.10573006 12.58787727 C-1.11294447 10.66024048 -1.11340809 8.73258193 -1.11352539 6.80493164 C-1.115746 5.70572891 -1.11796661 4.60652618 -1.12025452 3.47401428 C-1 1 -1 1 0 0 Z " fill="#094245" transform="translate(388,321)"/>
<path d="M0 0 C2.97 0 5.94 0 9 0 C9 20.79 9 41.58 9 63 C5.7 63 2.4 63 -1 63 C-1.02312737 54.93347826 -1.04091709 46.86697028 -1.05181217 38.80042362 C-1.05704014 35.05516963 -1.06413622 31.30993824 -1.07543945 27.56469727 C-1.08627141 23.95318313 -1.09227749 20.34169079 -1.09487724 16.73016167 C-1.09673094 15.34939671 -1.10035049 13.968633 -1.10573006 12.58787727 C-1.11294447 10.66024048 -1.11340809 8.73258193 -1.11352539 6.80493164 C-1.115746 5.70572891 -1.11796661 4.60652618 -1.12025452 3.47401428 C-1 1 -1 1 0 0 Z " fill="#DA4F14" transform="translate(192,321)"/>
<path d="M0 0 C3.5 3.5 3.5 3.5 7 7 C6.71624492 10.90378196 4.33582331 13.57471809 2.0625 16.625 C1.35222656 17.58664063 0.64195312 18.54828125 -0.08984375 19.5390625 C-2 22 -2 22 -4 24 C-3.77595202 27.9208397 -2.10945387 30.65091022 -0.12109375 33.96484375 C2.42169901 38.5808543 5 43.68435705 5 49 C2.5 51.6875 2.5 51.6875 0 54 C-1.485 53.505 -1.485 53.505 -3 53 C-4.140625 50.4453125 -4.140625 50.4453125 -5.25 47.125 C-8.33029606 38.66581837 -12.42601624 31.22874172 -19 25 C-18 22 -18 22 -15.72265625 20.1796875 C-12.7070307 17.76545643 -10.71511104 15.23839526 -8.4375 12.125 C-7.69371094 11.11695313 -6.94992187 10.10890625 -6.18359375 9.0703125 C-4.05879983 6.0826774 -2.01536091 3.06188618 0 0 Z " fill="#DA5219" transform="translate(346,137)"/>
<path d="M0 0 C4.47007572 3.69937301 6.53865642 8.50523418 7.28735352 14.17675781 C7.40102524 16.41821425 7.41682472 18.63112776 7.375 20.875 C7.35977295 22.06017212 7.35977295 22.06017212 7.34423828 23.26928711 C7.05548512 34.15796734 3.92302677 42.89392163 -3.76953125 50.82421875 C-7.01445111 53.74393967 -9.87506559 55.48399846 -14 57 C-14.7840697 46.07529558 -14.7840697 46.07529558 -11.8125 42 C-10.884375 41.34 -9.95625 40.68 -9 40 C-5.07836643 36.905373 -5.07836643 36.905373 -2 33 C-1.68067718 29.77225484 -1.68067718 29.77225484 -1.75 26.1875 C-1.74484375 24.98480469 -1.7396875 23.78210938 -1.734375 22.54296875 C-1.99890873 19.01455559 -2.82336467 16.3155577 -4 13 C-4.42589261 9.93951589 -4.49855388 7.05509178 -4 4 C-2 1.4375 -2 1.4375 0 0 Z " fill="#D34C14" transform="translate(298,204)"/>
<path d="M0 0 C3.55357616 3.18910681 5.70635662 5.1441412 6 10 C0.04078568 23.56450533 -12.75221429 35.56286386 -25.703125 42.34765625 C-28 43 -28 43 -30.125 42.31640625 C-33.03061561 40.27642196 -34.81623089 37.79037164 -37 35 C-35.82308594 34.5978125 -34.64617187 34.195625 -33.43359375 33.78125 C-29.21377406 32.19173816 -25.70428719 30.13738893 -22.0625 27.5 C-21.45986328 27.06421631 -20.85722656 26.62843262 -20.23632812 26.17944336 C-10.98613958 19.23561867 -5.0723351 10.28391077 0 0 Z " fill="#D95017" transform="translate(334,120)"/>
<path d="M0 0 C9.11295987 8.04084694 15.22212038 20.64663366 16.34375 32.69140625 C16.37361588 36.15211547 16.24139362 39.54849476 16 43 C15.97808594 43.83402344 15.95617187 44.66804688 15.93359375 45.52734375 C15.59378874 51.76440997 13.04217157 56.62287755 10 62 C9.34 62 8.68 62 8 62 C7.9906543 61.25016846 7.98130859 60.50033691 7.97167969 59.7277832 C7.69957447 42.37040456 7.29847814 28.54047586 -1.73046875 13.33984375 C-2.9326239 11.12417934 -3.73614604 9.50153852 -4 7 C-2.96319255 4.43663687 -1.49091669 2.34932327 0 0 Z " fill="#DA561F" transform="translate(323,172)"/>
<path d="M0 0 C-2.66709255 9.49540804 -9.58869858 16.84972089 -17.9140625 21.91796875 C-20.53279957 23.27637731 -23.14309165 24.2674594 -26 25 C-28.39542583 20.41845739 -30.50829734 15.9723422 -32 11 C-22.18365625 1.23849616 -13.70619739 -0.7109843 0 0 Z " fill="#D94F15" transform="translate(311,105)"/>
<path d="M0 0 C2.96175123 0.61277612 4.38058783 1.25372522 7 3 C5.86759068 13.01520455 -1.56998388 22.48138235 -9.2109375 28.83984375 C-15.0828919 33.22065515 -21.01486274 35.86196369 -28 38 C-29.32 35.03 -30.64 32.06 -32 29 C-30.535625 28.484375 -29.07125 27.96875 -27.5625 27.4375 C-14.94251891 22.34678831 -5.91349639 12.02600468 0 0 Z " fill="#DA5117" transform="translate(320,109)"/>
<path d="M0 0 C2.16874252 0.50603992 3.99967627 0.99983813 6 2 C5.26262528 10.2954656 2.44153763 17.96968044 -2 25 C-3.64293043 22.53560435 -4.97626772 20.22208889 -6.25 17.5625 C-6.62640625 16.80066406 -7.0028125 16.03882813 -7.390625 15.25390625 C-8 13 -8 13 -7.3046875 11.01171875 C-6.87414062 10.34785156 -6.44359375 9.68398437 -6 9 C-5.50242187 8.22140625 -5.00484375 7.4428125 -4.4921875 6.640625 C-3.95851563 5.85171875 -3.42484375 5.0628125 -2.875 4.25 C-2.33617187 3.45078125 -1.79734375 2.6515625 -1.2421875 1.828125 C-0.62730469 0.92320312 -0.62730469 0.92320312 0 0 Z " fill="#DB531B" transform="translate(360,151)"/>
<path d="M0 0 C5 1 5 1 6 2 C6.15385787 4.45284945 6.23163294 6.85820214 6.25 9.3125 C6.270625 9.98990234 6.29125 10.66730469 6.3125 11.36523438 C6.33703404 14.50252498 6.16411332 16.69349424 4.671875 19.48046875 C3 21 3 21 0 21 C0 14.07 0 7.14 0 0 Z " fill="#FCF2EE" transform="translate(159,330)"/>
<path d="M0 0 C3.52888584 6.44985438 4.31545811 13.74446344 4 21 C1.69 21 -0.62 21 -3 21 C-2.41523944 13.90593106 -1.36766005 6.98436101 0 0 Z " fill="#E8EDEE" transform="translate(428,340)"/>
<path d="M0 0 C0.66 0.33 1.32 0.66 2 1 C2.41064453 2.85766602 2.41064453 2.85766602 2.6328125 5.25390625 C2.71660156 6.10791016 2.80039063 6.96191406 2.88671875 7.84179688 C2.96535156 8.73962891 3.04398437 9.63746094 3.125 10.5625 C3.21136719 11.46419922 3.29773438 12.36589844 3.38671875 13.29492188 C3.59951659 15.52929918 3.80354467 17.76413615 4 20 C1.69 20 -0.62 20 -3 20 C-2.33644956 13.25390382 -1.28134207 6.65551466 0 0 Z " fill="#FBECE5" transform="translate(81,341)"/>
<path d="M0 0 C0.33 0 0.66 0 1 0 C1 5.61 1 11.22 1 17 C1.66 17 2.32 17 3 17 C2.34 19.31 1.68 21.62 1 24 C0.67 24 0.34 24 0 24 C0 16.08 0 8.16 0 0 Z " fill="#FBF1EC" transform="translate(226,321)"/>
<path d="M0 0 C2.08954032 4.17908064 2.16552619 4.80410573 1 9 C0.34 9 -0.32 9 -1 9 C-0.67 6.03 -0.34 3.06 0 0 Z " fill="#D7E0E1" transform="translate(428,340)"/>
</svg>
